PathFileType  4	(X/Y/Z) C:\Users\antoi\Documents\MyRepositories\mobilecap\ResultsAnalysis
DataRate	CameraRate	NumFrames	NumMarkers	Units	OrigDataRate	OrigDataStartFrame	OrigNumFrames
100.0	100.0	4	51	mm	100.0	349	1394
Frame#	Time	r_knee			r_shank_antsup			r_ankle			r_calc			r_5meta			r_toe			L_knee			L_shank_antsup			L_ankle			L_calc			L_5meta			L_toe			r_sh2			r_sh3			r_sh4			L_sh2			L_sh3			r_thigh1			r_thigh2			r_thigh3			r_thigh4			r_thigh5			L_thigh1			L_thigh2			L_thigh3			L_thigh4			r.ASIS			r.PSIS			L.ASIS			L.PSIS			C7			R_Shoulder			L_Shoulder			R_Sternum			L_Sternum			R_humerus			R_elbow_med			R_elbow_lat			R_forearm			R_wrist_radius			R_wrist_ulna			L_humerus			L_elbow_med			L_elbow_lat			L_forearm			L_wrist_radius			L_wrist_ulna			R_HJC			L_HJC			R_HJC_reg			L_HJC_reg			
		X1	Y1	Z1	X2	Y2	Z2	X3	Y3	Z3	X4	Y4	Z4	X5	Y5	Z5	X6	Y6	Z6	X7	Y7	Z7	X8	Y8	Z8	X9	Y9	Z9	X10	Y10	Z10	X11	Y11	Z11	X12	Y12	Z12	X13	Y13	Z13	X14	Y14	Z14	X15	Y15	Z15	X16	Y16	Z16	X17	Y17	Z17	X18	Y18	Z18	X19	Y19	Z19	X20	Y20	Z20	X21	Y21	Z21	X22	Y22	Z22	X23	Y23	Z23	X24	Y24	Z24	X25	Y25	Z25	X26	Y26	Z26	X27	Y27	Z27	X28	Y28	Z28	X29	Y29	Z29	X30	Y30	Z30	X31	Y31	Z31	X32	Y32	Z32	X33	Y33	Z33	X34	Y34	Z34	X35	Y35	Z35	X36	Y36	Z36	X37	Y37	Z37	X38	Y38	Z38	X39	Y39	Z39	X40	Y40	Z40	X41	Y41	Z41	X42	Y42	Z42	X43	Y43	Z43	X44	Y44	Z44	X45	Y45	Z45	X46	Y46	Z46	X47	Y47	Z47	X48	Y48	Z48	X49	Y49	Z49	X50	Y50	Z50	X51	Y51	Z51	

349	3.48000000	-170.03199	468.16217	-455.28986	-111.93906	403.24367	-469.58159	-261.37217	96.98996	-467.36407	-334.15287	62.33608	-497.89345	-160.28721	50.30107	-432.88086	-114.52642	76.86971	-489.24282	-184.44396	469.28606	-871.11763	-134.11736	388.76749	-883.67924	-256.98449	99.23954	-869.02778	-321.56192	59.59516	-825.85548	-151.67414	50.79072	-912.93271	-109.90672	80.41872	-863.82715	-161.46865	299.60317	-448.23511	-181.80496	433.08433	-439.38529	-227.61328	330.85562	-433.73326	-220.52366	414.51155	-881.36371	-246.33698	294.21237	-891.21098	-475.73191	556.38744	-464.13089	-363.73600	542.26946	-461.62456	-349.94253	482.98141	-431.12134	-490.92675	446.00624	-446.18280	-373.22214	432.27422	-443.50711	-449.89542	520.65212	-884.93451	-312.89020	522.35030	-880.64620	-453.02241	408.74368	-849.50283	-311.95584	415.75481	-858.47347	-482.12583	564.57728	-534.34900	-652.29243	608.79213	-608.61987	-475.41484	572.37523	-784.79931	-659.37024	615.76515	-699.20950	-470.26765	997.04015	-638.89261	-375.96175	958.49079	-473.11494	-369.96315	972.33456	-801.57178	-340.85472	925.97775	-615.50014	-333.33542	926.46156	-649.11731	-349.36233	855.40804	-390.00768	-316.61446	636.32824	-390.64966	-287.19084	676.28939	-327.73860	-194.03888	740.50473	-411.24781	-118.09811	792.61555	-500.39861	-93.18254	768.35327	-501.88454	-329.31019	886.54754	-877.68609	-264.28472	651.52130	-884.47517	-242.96992	711.72849	-942.63650	-179.08864	762.50578	-869.98903	-82.64248	814.74056	-766.35667	-57.95631	794.82128	-778.71433	-549.39169	485.58289	-560.08236	-551.40939	497.96502	-766.17123	-543.50092	489.80764	-570.01451	-556.34920	502.46882	-734.46581	
350	3.49000000	-169.61163	467.24413	-454.29344	-111.28131	402.46797	-468.25313	-261.22024	96.76400	-467.10870	-334.01459	62.36083	-497.90967	-160.25421	49.76437	-432.85024	-114.42846	76.63157	-488.66703	-184.33195	468.96582	-871.27218	-133.64636	388.47123	-884.03621	-256.77804	99.14558	-868.77037	-321.39581	59.56014	-825.64177	-151.57817	50.93476	-913.08828	-109.78257	80.36475	-863.72989	-161.10560	298.87939	-447.28254	-181.22771	432.48320	-438.33677	-227.20005	330.42961	-433.07243	-220.09183	414.09589	-881.55157	-245.93345	293.84155	-891.16841	-475.16355	556.50797	-463.58857	-363.33722	542.00208	-461.01722	-349.77707	482.68658	-430.57477	-490.78527	446.40549	-445.28813	-373.15261	432.16475	-442.69103	-449.95894	521.80338	-885.78504	-312.61936	522.75576	-880.72420	-453.05588	409.23879	-849.48700	-312.00733	416.06981	-858.79374	-479.07691	564.63133	-534.32347	-648.82016	610.58073	-607.87668	-474.52570	571.47931	-781.22926	-655.90169	618.08598	-698.07716	-462.19179	995.85515	-639.04472	-366.87204	958.07229	-473.70867	-360.46471	971.01168	-800.12229	-333.01049	923.63309	-614.93646	-326.79135	925.59261	-648.32410	-338.82495	857.14166	-389.82334	-301.92868	638.66085	-388.67228	-272.52930	679.91227	-326.61062	-180.45321	743.81941	-411.74054	-105.53378	795.39667	-501.84348	-80.38593	771.37245	-503.16865	-318.40535	887.02080	-876.76785	-250.44254	652.86289	-884.86057	-229.35196	714.28659	-943.74172	-166.47249	764.62106	-869.46649	-70.69817	816.84395	-765.11889	-45.81785	797.29077	-777.77665	-548.02951	486.48545	-558.38081	-550.31748	498.16926	-764.50739	-541.71639	490.51909	-569.72814	-554.43448	504.00155	-731.72174	
351	3.50000000	-168.87486	466.22395	-453.14153	-110.35273	401.67676	-466.42737	-261.06457	96.53149	-466.86963	-333.75875	62.42306	-497.92305	-160.24247	48.92812	-432.73502	-114.19663	76.17632	-487.92958	-184.12145	468.49663	-871.45903	-133.04837	388.00090	-884.43105	-256.33983	98.97643	-868.54164	-321.03273	59.66712	-825.54475	-151.38146	50.96436	-913.57151	-109.46980	79.94914	-863.71879	-160.49306	298.00507	-446.18161	-180.41956	431.71189	-436.79928	-226.44524	329.61858	-432.07097	-219.54678	413.59339	-881.95470	-245.24897	293.38265	-891.47606	-474.02209	557.08965	-462.96812	-362.24936	541.73610	-460.22547	-349.28556	482.55917	-429.90651	-490.34629	447.04957	-444.91554	-372.80815	432.21124	-441.89569	-449.63205	522.76241	-885.14724	-312.29277	523.21077	-880.71025	-453.08501	410.06678	-849.63302	-312.08174	416.33999	-859.13687	-475.65790	564.69026	-534.34295	-645.09789	612.34084	-606.86982	-473.45301	570.73518	-777.32212	-652.25356	620.60921	-696.95780	-454.06914	994.64241	-639.19923	-357.80447	957.84868	-474.61687	-350.86506	969.70060	-798.81018	-325.17716	921.83731	-614.91715	-320.28781	925.30726	-647.76263	-327.91551	859.24888	-389.72278	-286.40894	641.46330	-386.70453	-257.05347	684.25556	-325.55628	-166.27244	747.73793	-412.44713	-92.53352	799.09706	-503.10214	-67.07094	775.13300	-504.64700	-307.20662	887.60419	-875.90689	-236.18247	654.78986	-885.87052	-215.10388	717.07976	-944.95467	-153.38013	767.06143	-868.94103	-58.29779	819.41010	-764.06017	-33.23277	800.27032	-776.90913	-546.40340	487.44728	-556.59133	-549.03126	498.52523	-762.74894	-539.51690	491.16633	-569.54207	-552.16582	505.77448	-728.79534	
352	3.51000000	-167.87911	465.33927	-451.47239	-109.21570	400.86596	-464.38183	-260.84793	96.25858	-466.72157	-333.42357	62.51256	-497.95969	-160.30151	48.19089	-432.26377	-113.83345	75.59163	-487.13347	-183.71061	467.90381	-871.88350	-132.35505	387.36672	-884.94930	-255.67595	98.58207	-868.19918	-320.56123	59.96789	-825.66812	-151.11133	50.66548	-914.27606	-108.94286	79.14501	-863.83834	-159.63795	297.14038	-445.04964	-179.33651	430.58766	-435.05790	-225.54240	328.53743	-430.90627	-218.91294	412.90625	-882.55191	-244.39120	292.75010	-891.98784	-472.41131	558.14864	-462.41140	-360.45922	541.12345	-459.60727	-348.35114	482.33760	-429.05738	-489.56915	447.89772	-444.90719	-372.13314	432.24500	-441.16322	-448.42301	523.60885	-882.70288	-311.84223	523.54584	-880.58259	-453.16270	411.27835	-849.82088	-312.18246	416.49461	-859.32883	-471.95525	564.86819	-534.44172	-641.16456	614.22919	-605.71020	-471.63548	570.95820	-774.24137	-648.43110	623.42676	-695.78727	-445.86336	993.48150	-639.37778	-348.61328	957.82389	-475.57182	-341.16007	968.59708	-797.55637	-317.24460	920.17075	-614.89262	-311.93069	923.33121	-647.58186	-316.60462	861.68593	-389.83312	-270.12436	644.68867	-384.74069	-241.03122	689.12678	-324.66468	-151.59534	752.25410	-413.17577	-79.23086	803.40059	-504.61361	-53.35173	779.59306	-506.30989	-295.79224	888.29247	-875.01474	-221.30793	656.76896	-886.69888	-200.88582	719.84317	-945.12784	-139.89345	769.90183	-868.37014	-45.58104	822.35430	-763.13157	-20.23685	803.79643	-776.20209	-544.18592	488.49298	-555.34582	-547.24066	499.69008	-761.49034	-536.82088	491.93987	-569.66391	-549.48472	507.96501	-726.65804	
